<svg xmlns="http://www.w3.org/2000/svg" version="1.1" xmlns:xlink="http://www.w3.org/1999/xlink" xmlns:svgjs="http://svgjs.dev/svgjs" viewBox="0 0 800 800" opacity="0.55" width="800" height="800"><g stroke-width="1.25" stroke="#3b87d460" fill="none"><rect width="100" height="2.894736842105263" x="-50" y="-1.4473684210526314" stroke="none" fill="#3b87d460" rx="1.4473684210526314" transform="rotate(45, 0, 0)"></rect><rect width="2.894736842105263" height="100" x="-1.4473684210526314" y="-50" stroke="none" fill="#3b87d460" rx="1.4473684210526314" transform="rotate(45, 0, 0)"></rect><rect width="100" height="2.894736842105263" x="150" y="-1.4473684210526314" stroke="none" fill="#3b87d460" rx="1.4473684210526314" transform="rotate(45, 200, 0)"></rect><rect width="2.894736842105263" height="100" x="198.55263157894737" y="-50" stroke="none" fill="#3b87d460" rx="1.4473684210526314" transform="rotate(45, 200, 0)"></rect><rect width="100" height="2.894736842105263" x="350" y="-1.4473684210526314" stroke="none" fill="#3b87d460" rx="1.4473684210526314" transform="rotate(45, 400, 0)"></rect><rect width="2.894736842105263" height="100" x="398.55263157894734" y="-50" stroke="none" fill="#3b87d460" rx="1.4473684210526314" transform="rotate(45, 400, 0)"></rect><rect width="100" height="2.894736842105263" x="550" y="-1.4473684210526314" stroke="none" fill="#3b87d460" rx="1.4473684210526314" transform="rotate(45, 600, 0)"></rect><rect width="2.894736842105263" height="100" x="598.5526315789474" y="-50" stroke="none" fill="#3b87d460" rx="1.4473684210526314" transform="rotate(45, 600, 0)"></rect><rect width="100" height="2.894736842105263" x="750" y="-1.4473684210526314" stroke="none" fill="#3b87d460" rx="1.4473684210526314" transform="rotate(45, 800, 0)"></rect><rect width="2.894736842105263" height="100" x="798.5526315789474" y="-50" stroke="none" fill="#3b87d460" rx="1.4473684210526314" transform="rotate(45, 800, 0)"></rect><rect width="100" height="2.894736842105263" x="-50" y="198.55263157894737" stroke="none" fill="#3b87d460" rx="1.4473684210526314" transform="rotate(45, 0, 200)"></rect><rect width="2.894736842105263" height="100" x="-1.4473684210526314" y="150" stroke="none" fill="#3b87d460" rx="1.4473684210526314" transform="rotate(45, 0, 200)"></rect><rect width="100" height="2.894736842105263" x="150" y="198.55263157894737" stroke="none" fill="#3b87d460" rx="1.4473684210526314" transform="rotate(45, 200, 200)"></rect><rect width="2.894736842105263" height="100" x="198.55263157894737" y="150" stroke="none" fill="#3b87d460" rx="1.4473684210526314" transform="rotate(45, 200, 200)"></rect><rect width="100" height="2.894736842105263" x="350" y="198.55263157894737" stroke="none" fill="#3b87d460" rx="1.4473684210526314" transform="rotate(45, 400, 200)"></rect><rect width="2.894736842105263" height="100" x="398.55263157894734" y="150" stroke="none" fill="#3b87d460" rx="1.4473684210526314" transform="rotate(45, 400, 200)"></rect><rect width="100" height="2.894736842105263" x="550" y="198.55263157894737" stroke="none" fill="#3b87d460" rx="1.4473684210526314" transform="rotate(45, 600, 200)"></rect><rect width="2.894736842105263" height="100" x="598.5526315789474" y="150" stroke="none" fill="#3b87d460" rx="1.4473684210526314" transform="rotate(45, 600, 200)"></rect><rect width="100" height="2.894736842105263" x="750" y="198.55263157894737" stroke="none" fill="#3b87d460" rx="1.4473684210526314" transform="rotate(45, 800, 200)"></rect><rect width="2.894736842105263" height="100" x="798.5526315789474" y="150" stroke="none" fill="#3b87d460" rx="1.4473684210526314" transform="rotate(45, 800, 200)"></rect><rect width="100" height="2.894736842105263" x="-50" y="398.55263157894734" stroke="none" fill="#3b87d460" rx="1.4473684210526314" transform="rotate(45, 0, 400)"></rect><rect width="2.894736842105263" height="100" x="-1.4473684210526314" y="350" stroke="none" fill="#3b87d460" rx="1.4473684210526314" transform="rotate(45, 0, 400)"></rect><rect width="100" height="2.894736842105263" x="150" y="398.55263157894734" stroke="none" fill="#3b87d460" rx="1.4473684210526314" transform="rotate(45, 200, 400)"></rect><rect width="2.894736842105263" height="100" x="198.55263157894737" y="350" stroke="none" fill="#3b87d460" rx="1.4473684210526314" transform="rotate(45, 200, 400)"></rect><rect width="100" height="2.894736842105263" x="350" y="398.55263157894734" stroke="none" fill="#3b87d460" rx="1.4473684210526314" transform="rotate(45, 400, 400)"></rect><rect width="2.894736842105263" height="100" x="398.55263157894734" y="350" stroke="none" fill="#3b87d460" rx="1.4473684210526314" transform="rotate(45, 400, 400)"></rect><rect width="100" height="2.894736842105263" x="550" y="398.55263157894734" stroke="none" fill="#3b87d460" rx="1.4473684210526314" transform="rotate(45, 600, 400)"></rect><rect width="2.894736842105263" height="100" x="598.5526315789474" y="350" stroke="none" fill="#3b87d460" rx="1.4473684210526314" transform="rotate(45, 600, 400)"></rect><rect width="100" height="2.894736842105263" x="750" y="398.55263157894734" stroke="none" fill="#3b87d460" rx="1.4473684210526314" transform="rotate(45, 800, 400)"></rect><rect width="2.894736842105263" height="100" x="798.5526315789474" y="350" stroke="none" fill="#3b87d460" rx="1.4473684210526314" transform="rotate(45, 800, 400)"></rect><rect width="100" height="2.894736842105263" x="-50" y="598.5526315789474" stroke="none" fill="#3b87d460" rx="1.4473684210526314" transform="rotate(45, 0, 600)"></rect><rect width="2.894736842105263" height="100" x="-1.4473684210526314" y="550" stroke="none" fill="#3b87d460" rx="1.4473684210526314" transform="rotate(45, 0, 600)"></rect><rect width="100" height="2.894736842105263" x="150" y="598.5526315789474" stroke="none" fill="#3b87d460" rx="1.4473684210526314" transform="rotate(45, 200, 600)"></rect><rect width="2.894736842105263" height="100" x="198.55263157894737" y="550" stroke="none" fill="#3b87d460" rx="1.4473684210526314" transform="rotate(45, 200, 600)"></rect><rect width="100" height="2.894736842105263" x="350" y="598.5526315789474" stroke="none" fill="#3b87d460" rx="1.4473684210526314" transform="rotate(45, 400, 600)"></rect><rect width="2.894736842105263" height="100" x="398.55263157894734" y="550" stroke="none" fill="#3b87d460" rx="1.4473684210526314" transform="rotate(45, 400, 600)"></rect><rect width="100" height="2.894736842105263" x="550" y="598.5526315789474" stroke="none" fill="#3b87d460" rx="1.4473684210526314" transform="rotate(45, 600, 600)"></rect><rect width="2.894736842105263" height="100" x="598.5526315789474" y="550" stroke="none" fill="#3b87d460" rx="1.4473684210526314" transform="rotate(45, 600, 600)"></rect><rect width="100" height="2.894736842105263" x="750" y="598.5526315789474" stroke="none" fill="#3b87d460" rx="1.4473684210526314" transform="rotate(45, 800, 600)"></rect><rect width="2.894736842105263" height="100" x="798.5526315789474" y="550" stroke="none" fill="#3b87d460" rx="1.4473684210526314" transform="rotate(45, 800, 600)"></rect><rect width="100" height="2.894736842105263" x="-50" y="798.5526315789474" stroke="none" fill="#3b87d460" rx="1.4473684210526314" transform="rotate(45, 0, 800)"></rect><rect width="2.894736842105263" height="100" x="-1.4473684210526314" y="750" stroke="none" fill="#3b87d460" rx="1.4473684210526314" transform="rotate(45, 0, 800)"></rect><rect width="100" height="2.894736842105263" x="150" y="798.5526315789474" stroke="none" fill="#3b87d460" rx="1.4473684210526314" transform="rotate(45, 200, 800)"></rect><rect width="2.894736842105263" height="100" x="198.55263157894737" y="750" stroke="none" fill="#3b87d460" rx="1.4473684210526314" transform="rotate(45, 200, 800)"></rect><rect width="100" height="2.894736842105263" x="350" y="798.5526315789474" stroke="none" fill="#3b87d460" rx="1.4473684210526314" transform="rotate(45, 400, 800)"></rect><rect width="2.894736842105263" height="100" x="398.55263157894734" y="750" stroke="none" fill="#3b87d460" rx="1.4473684210526314" transform="rotate(45, 400, 800)"></rect><rect width="100" height="2.894736842105263" x="550" y="798.5526315789474" stroke="none" fill="#3b87d460" rx="1.4473684210526314" transform="rotate(45, 600, 800)"></rect><rect width="2.894736842105263" height="100" x="598.5526315789474" y="750" stroke="none" fill="#3b87d460" rx="1.4473684210526314" transform="rotate(45, 600, 800)"></rect><rect width="100" height="2.894736842105263" x="750" y="798.5526315789474" stroke="none" fill="#3b87d460" rx="1.4473684210526314" transform="rotate(45, 800, 800)"></rect><rect width="2.894736842105263" height="100" x="798.5526315789474" y="750" stroke="none" fill="#3b87d460" rx="1.4473684210526314" transform="rotate(45, 800, 800)"></rect></g></svg>