<svg xmlns="http://www.w3.org/2000/svg" version="1.1" xmlns:xlink="http://www.w3.org/1999/xlink" xmlns:svgjs="http://svgjs.dev/svgjs" viewBox="0 0 800 800" opacity="0.46" width="800" height="800"><g stroke-width="1.5" stroke="#3b87d460" fill="none"><line x1="0" y1="0" x2="200" y2="200"></line><line x1="200" y1="0" x2="0" y2="200"></line><line x1="200" y1="0" x2="400" y2="200"></line><line x1="400" y1="0" x2="200" y2="200"></line><line x1="400" y1="0" x2="600" y2="200"></line><line x1="600" y1="0" x2="400" y2="200"></line><line x1="600" y1="0" x2="800" y2="200"></line><line x1="800" y1="0" x2="600" y2="200"></line><line x1="800" y1="0" x2="1000" y2="200"></line><line x1="1000" y1="0" x2="800" y2="200"></line><line x1="0" y1="66.66666666666667" x2="200" y2="266.6666666666667"></line><line x1="200" y1="66.66666666666667" x2="0" y2="266.6666666666667"></line><line x1="200" y1="66.66666666666667" x2="400" y2="266.6666666666667"></line><line x1="400" y1="66.66666666666667" x2="200" y2="266.6666666666667"></line><line x1="400" y1="66.66666666666667" x2="600" y2="266.6666666666667"></line><line x1="600" y1="66.66666666666667" x2="400" y2="266.6666666666667"></line><line x1="600" y1="66.66666666666667" x2="800" y2="266.6666666666667"></line><line x1="800" y1="66.66666666666667" x2="600" y2="266.6666666666667"></line><line x1="800" y1="66.66666666666667" x2="1000" y2="266.6666666666667"></line><line x1="1000" y1="66.66666666666667" x2="800" y2="266.6666666666667"></line><line x1="0" y1="133.33333333333334" x2="200" y2="333.33333333333337"></line><line x1="200" y1="133.33333333333334" x2="0" y2="333.33333333333337"></line><line x1="200" y1="133.33333333333334" x2="400" y2="333.33333333333337"></line><line x1="400" y1="133.33333333333334" x2="200" y2="333.33333333333337"></line><line x1="400" y1="133.33333333333334" x2="600" y2="333.33333333333337"></line><line x1="600" y1="133.33333333333334" x2="400" y2="333.33333333333337"></line><line x1="600" y1="133.33333333333334" x2="800" y2="333.33333333333337"></line><line x1="800" y1="133.33333333333334" x2="600" y2="333.33333333333337"></line><line x1="800" y1="133.33333333333334" x2="1000" y2="333.33333333333337"></line><line x1="1000" y1="133.33333333333334" x2="800" y2="333.33333333333337"></line><line x1="0" y1="200" x2="200" y2="400"></line><line x1="200" y1="200" x2="0" y2="400"></line><line x1="200" y1="200" x2="400" y2="400"></line><line x1="400" y1="200" x2="200" y2="400"></line><line x1="400" y1="200" x2="600" y2="400"></line><line x1="600" y1="200" x2="400" y2="400"></line><line x1="600" y1="200" x2="800" y2="400"></line><line x1="800" y1="200" x2="600" y2="400"></line><line x1="800" y1="200" x2="1000" y2="400"></line><line x1="1000" y1="200" x2="800" y2="400"></line><line x1="0" y1="266.6666666666667" x2="200" y2="466.6666666666667"></line><line x1="200" y1="266.6666666666667" x2="0" y2="466.6666666666667"></line><line x1="200" y1="266.6666666666667" x2="400" y2="466.6666666666667"></line><line x1="400" y1="266.6666666666667" x2="200" y2="466.6666666666667"></line><line x1="400" y1="266.6666666666667" x2="600" y2="466.6666666666667"></line><line x1="600" y1="266.6666666666667" x2="400" y2="466.6666666666667"></line><line x1="600" y1="266.6666666666667" x2="800" y2="466.6666666666667"></line><line x1="800" y1="266.6666666666667" x2="600" y2="466.6666666666667"></line><line x1="800" y1="266.6666666666667" x2="1000" y2="466.6666666666667"></line><line x1="1000" y1="266.6666666666667" x2="800" y2="466.6666666666667"></line><line x1="0" y1="333.33333333333337" x2="200" y2="533.3333333333334"></line><line x1="200" y1="333.33333333333337" x2="0" y2="533.3333333333334"></line><line x1="200" y1="333.33333333333337" x2="400" y2="533.3333333333334"></line><line x1="400" y1="333.33333333333337" x2="200" y2="533.3333333333334"></line><line x1="400" y1="333.33333333333337" x2="600" y2="533.3333333333334"></line><line x1="600" y1="333.33333333333337" x2="400" y2="533.3333333333334"></line><line x1="600" y1="333.33333333333337" x2="800" y2="533.3333333333334"></line><line x1="800" y1="333.33333333333337" x2="600" y2="533.3333333333334"></line><line x1="800" y1="333.33333333333337" x2="1000" y2="533.3333333333334"></line><line x1="1000" y1="333.33333333333337" x2="800" y2="533.3333333333334"></line><line x1="0" y1="400.00000000000006" x2="200" y2="600"></line><line x1="200" y1="400.00000000000006" x2="0" y2="600"></line><line x1="200" y1="400.00000000000006" x2="400" y2="600"></line><line x1="400" y1="400.00000000000006" x2="200" y2="600"></line><line x1="400" y1="400.00000000000006" x2="600" y2="600"></line><line x1="600" y1="400.00000000000006" x2="400" y2="600"></line><line x1="600" y1="400.00000000000006" x2="800" y2="600"></line><line x1="800" y1="400.00000000000006" x2="600" y2="600"></line><line x1="800" y1="400.00000000000006" x2="1000" y2="600"></line><line x1="1000" y1="400.00000000000006" x2="800" y2="600"></line><line x1="0" y1="466.66666666666674" x2="200" y2="666.6666666666667"></line><line x1="200" y1="466.66666666666674" x2="0" y2="666.6666666666667"></line><line x1="200" y1="466.66666666666674" x2="400" y2="666.6666666666667"></line><line x1="400" y1="466.66666666666674" x2="200" y2="666.6666666666667"></line><line x1="400" y1="466.66666666666674" x2="600" y2="666.6666666666667"></line><line x1="600" y1="466.66666666666674" x2="400" y2="666.6666666666667"></line><line x1="600" y1="466.66666666666674" x2="800" y2="666.6666666666667"></line><line x1="800" y1="466.66666666666674" x2="600" y2="666.6666666666667"></line><line x1="800" y1="466.66666666666674" x2="1000" y2="666.6666666666667"></line><line x1="1000" y1="466.66666666666674" x2="800" y2="666.6666666666667"></line><line x1="0" y1="533.3333333333334" x2="200" y2="733.3333333333334"></line><line x1="200" y1="533.3333333333334" x2="0" y2="733.3333333333334"></line><line x1="200" y1="533.3333333333334" x2="400" y2="733.3333333333334"></line><line x1="400" y1="533.3333333333334" x2="200" y2="733.3333333333334"></line><line x1="400" y1="533.3333333333334" x2="600" y2="733.3333333333334"></line><line x1="600" y1="533.3333333333334" x2="400" y2="733.3333333333334"></line><line x1="600" y1="533.3333333333334" x2="800" y2="733.3333333333334"></line><line x1="800" y1="533.3333333333334" x2="600" y2="733.3333333333334"></line><line x1="800" y1="533.3333333333334" x2="1000" y2="733.3333333333334"></line><line x1="1000" y1="533.3333333333334" x2="800" y2="733.3333333333334"></line><line x1="0" y1="600" x2="200" y2="800"></line><line x1="200" y1="600" x2="0" y2="800"></line><line x1="200" y1="600" x2="400" y2="800"></line><line x1="400" y1="600" x2="200" y2="800"></line><line x1="400" y1="600" x2="600" y2="800"></line><line x1="600" y1="600" x2="400" y2="800"></line><line x1="600" y1="600" x2="800" y2="800"></line><line x1="800" y1="600" x2="600" y2="800"></line><line x1="800" y1="600" x2="1000" y2="800"></line><line x1="1000" y1="600" x2="800" y2="800"></line><line x1="0" y1="666.6666666666666" x2="200" y2="866.6666666666666"></line><line x1="200" y1="666.6666666666666" x2="0" y2="866.6666666666666"></line><line x1="200" y1="666.6666666666666" x2="400" y2="866.6666666666666"></line><line x1="400" y1="666.6666666666666" x2="200" y2="866.6666666666666"></line><line x1="400" y1="666.6666666666666" x2="600" y2="866.6666666666666"></line><line x1="600" y1="666.6666666666666" x2="400" y2="866.6666666666666"></line><line x1="600" y1="666.6666666666666" x2="800" y2="866.6666666666666"></line><line x1="800" y1="666.6666666666666" x2="600" y2="866.6666666666666"></line><line x1="800" y1="666.6666666666666" x2="1000" y2="866.6666666666666"></line><line x1="1000" y1="666.6666666666666" x2="800" y2="866.6666666666666"></line><line x1="0" y1="733.3333333333333" x2="200" y2="933.3333333333333"></line><line x1="200" y1="733.3333333333333" x2="0" y2="933.3333333333333"></line><line x1="200" y1="733.3333333333333" x2="400" y2="933.3333333333333"></line><line x1="400" y1="733.3333333333333" x2="200" y2="933.3333333333333"></line><line x1="400" y1="733.3333333333333" x2="600" y2="933.3333333333333"></line><line x1="600" y1="733.3333333333333" x2="400" y2="933.3333333333333"></line><line x1="600" y1="733.3333333333333" x2="800" y2="933.3333333333333"></line><line x1="800" y1="733.3333333333333" x2="600" y2="933.3333333333333"></line><line x1="800" y1="733.3333333333333" x2="1000" y2="933.3333333333333"></line><line x1="1000" y1="733.3333333333333" x2="800" y2="933.3333333333333"></line><line x1="0" y1="799.9999999999999" x2="200" y2="999.9999999999999"></line><line x1="200" y1="799.9999999999999" x2="0" y2="999.9999999999999"></line><line x1="200" y1="799.9999999999999" x2="400" y2="999.9999999999999"></line><line x1="400" y1="799.9999999999999" x2="200" y2="999.9999999999999"></line><line x1="400" y1="799.9999999999999" x2="600" y2="999.9999999999999"></line><line x1="600" y1="799.9999999999999" x2="400" y2="999.9999999999999"></line><line x1="600" y1="799.9999999999999" x2="800" y2="999.9999999999999"></line><line x1="800" y1="799.9999999999999" x2="600" y2="999.9999999999999"></line><line x1="800" y1="799.9999999999999" x2="1000" y2="999.9999999999999"></line><line x1="1000" y1="799.9999999999999" x2="800" y2="999.9999999999999"></line></g></svg>